<svg width="512" height="512" viewBox="0 0 512 512" fill="none" xmlns="http://www.w3.org/2000/svg">
<g clip-path="url(#clip0)">
<path d="M477.867 100.693H34.1333C24.7077 100.693 17.0667 108.334 17.0667 117.76V477.867C17.0667 487.292 24.7077 494.933 34.1333 494.933H477.867C487.292 494.933 494.933 487.292 494.933 477.867V117.76C494.933 108.334 487.292 100.693 477.867 100.693Z" stroke="#032616" stroke-width="40"/>
<path d="M189.44 4.26672H155.307C148.237 4.26672 142.507 9.99748 142.507 17.0667V85.3334C142.507 92.4026 148.237 98.1334 155.307 98.1334H189.44C196.509 98.1334 202.24 92.4026 202.24 85.3334V17.0667C202.24 9.99748 196.509 4.26672 189.44 4.26672Z" stroke="#032616" stroke-width="15"/>
<path d="M358.4 4.26672H324.267C317.197 4.26672 311.467 9.99748 311.467 17.0667V85.3334C311.467 92.4026 317.197 98.1334 324.267 98.1334H358.4C365.469 98.1334 371.2 92.4026 371.2 85.3334V17.0667C371.2 9.99748 365.469 4.26672 358.4 4.26672Z" stroke="#032616" stroke-width="15"/>
<path d="M264.888 257.475C253.31 257.475 243.152 255.072 234.414 250.266C225.785 245.46 219.068 238.578 214.262 229.622C209.565 220.665 207.217 210.179 207.217 198.165C207.217 186.259 209.565 175.828 214.262 166.871C219.068 157.915 225.785 151.033 234.414 146.227C243.152 141.421 253.31 139.018 264.888 139.018C278.76 139.018 290.939 142.677 301.425 149.996C303.282 151.306 304.592 152.726 305.357 154.255C306.231 155.785 306.668 157.751 306.668 160.154C306.668 163.54 305.685 166.434 303.718 168.837C301.862 171.131 299.568 172.278 296.837 172.278C295.199 172.278 293.724 172.059 292.413 171.622C291.103 171.076 289.574 170.257 287.826 169.165C284.003 166.871 280.399 165.233 277.013 164.25C273.626 163.267 270.131 162.775 266.527 162.775C256.806 162.775 249.542 165.724 244.736 171.622C240.039 177.411 237.691 186.259 237.691 198.165C237.691 210.179 240.039 219.136 244.736 225.034C249.542 230.823 256.806 233.718 266.527 233.718C269.804 233.718 272.971 233.226 276.029 232.243C279.088 231.151 283.02 229.513 287.826 227.328C290.12 226.127 291.813 225.307 292.905 224.87C293.997 224.434 295.308 224.215 296.837 224.215C299.568 224.215 301.862 225.417 303.718 227.82C305.685 230.113 306.668 232.953 306.668 236.339C306.668 238.633 306.231 240.599 305.357 242.238C304.592 243.767 303.282 245.187 301.425 246.497C290.939 253.816 278.76 257.475 264.888 257.475Z" fill="#032616"/>
<path d="M170.667 307.2H102.4V341.333H170.667V307.2Z" fill="#032616"/>
<path d="M290.133 307.2H221.867V341.333H290.133V307.2Z" fill="#032616"/>
<path d="M409.6 307.2H341.333V341.333H409.6V307.2Z" fill="#032616"/>
<path d="M170.667 375.467H102.4V409.6H170.667V375.467Z" fill="#032616"/>
<path d="M290.133 375.467H221.867V409.6H290.133V375.467Z" fill="#032616"/>
<path d="M409.6 375.467H341.333V409.6H409.6V375.467Z" fill="#032616"/>
</g>
<defs>
<clipPath id="clip0">
<rect width="512" height="512" fill="white"/>
</clipPath>
</defs>
</svg>
