<svg width="192" height="192" viewBox="0 0 192 192" fill="none" xmlns="http://www.w3.org/2000/svg">
<g clip-path="url(#clip0)">
<path d="M179.2 37.76H12.8C9.2654 37.76 6.40002 40.6254 6.40002 44.16V179.2C6.40002 182.735 9.2654 185.6 12.8 185.6H179.2C182.735 185.6 185.6 182.735 185.6 179.2V44.16C185.6 40.6254 182.735 37.76 179.2 37.76Z" stroke="#032616" stroke-width="15"/>
<path d="M71.0399 1.59998H58.2399C55.589 1.59998 53.4399 3.74901 53.4399 6.39998V32C53.4399 34.6509 55.589 36.8 58.2399 36.8H71.0399C73.6909 36.8 75.8399 34.6509 75.8399 32V6.39998C75.8399 3.74901 73.6909 1.59998 71.0399 1.59998Z" stroke="#032616" stroke-width="5"/>
<path d="M134.4 1.59998H121.6C118.949 1.59998 116.8 3.74901 116.8 6.39998V32C116.8 34.6509 118.949 36.8 121.6 36.8H134.4C137.051 36.8 139.2 34.6509 139.2 32V6.39998C139.2 3.74901 137.051 1.59998 134.4 1.59998Z" stroke="#032616" stroke-width="5"/>
<path d="M99.3332 96.5529C94.9914 96.5529 91.1821 95.6518 87.9053 93.8496C84.6695 92.0474 82.1505 89.4669 80.3482 86.1082C78.5869 82.7494 77.7063 78.8173 77.7063 74.3117C77.7063 69.847 78.5869 65.9354 80.3482 62.5766C82.1505 59.2179 84.6695 56.6374 87.9053 54.8352C91.1821 53.033 94.9914 52.1318 99.3332 52.1318C104.535 52.1318 109.102 53.504 113.034 56.2483C113.731 56.7398 114.222 57.2723 114.509 57.8458C114.837 58.4192 115 59.1565 115 60.0576C115 61.3274 114.632 62.4128 113.894 63.3139C113.198 64.1741 112.338 64.6042 111.314 64.6042C110.7 64.6042 110.147 64.5222 109.655 64.3584C109.164 64.1536 108.59 63.8464 107.935 63.4368C106.501 62.5766 105.149 61.9622 103.88 61.5936C102.61 61.225 101.299 61.0406 99.9476 61.0406C96.3021 61.0406 93.5783 62.1466 91.7761 64.3584C90.0148 66.5293 89.1341 69.847 89.1341 74.3117C89.1341 78.8173 90.0148 82.176 91.7761 84.3878C93.5783 86.5587 96.3021 87.6442 99.9476 87.6442C101.176 87.6442 102.364 87.4598 103.511 87.0912C104.658 86.6816 106.133 86.0672 107.935 85.248C108.795 84.7974 109.43 84.4902 109.839 84.3264C110.249 84.1625 110.741 84.0806 111.314 84.0806C112.338 84.0806 113.198 84.5312 113.894 85.4323C114.632 86.2925 115 87.3574 115 88.6272C115 89.4873 114.837 90.2246 114.509 90.839C114.222 91.4125 113.731 91.945 113.034 92.4365C109.102 95.1808 104.535 96.5529 99.3332 96.5529Z" fill="#032616"/>
<path d="M64 115.2H38.4V128H64V115.2Z" fill="#032616"/>
<path d="M108.8 115.2H83.2V128H108.8V115.2Z" fill="#032616"/>
<path d="M153.6 115.2H128V128H153.6V115.2Z" fill="#032616"/>
<path d="M64 140.8H38.4V153.6H64V140.8Z" fill="#032616"/>
<path d="M108.8 140.8H83.2V153.6H108.8V140.8Z" fill="#032616"/>
<path d="M153.6 140.8H128V153.6H153.6V140.8Z" fill="#032616"/>
</g>
<defs>
<clipPath id="clip0">
<rect width="192" height="192" fill="white"/>
</clipPath>
</defs>
</svg>
