<svg width="32" height="32" viewBox="0 0 32 32" fill="none" xmlns="http://www.w3.org/2000/svg">
<g clip-path="url(#clip0)">
<path d="M29.8667 6.29333H2.13332C1.54421 6.29333 1.06665 6.7709 1.06665 7.36V29.8667C1.06665 30.4558 1.54421 30.9333 2.13332 30.9333H29.8667C30.4558 30.9333 30.9333 30.4558 30.9333 29.8667V7.36C30.9333 6.7709 30.4558 6.29333 29.8667 6.29333Z" stroke="#032616" stroke-width="2"/>
<path d="M11.8401 0.266724H9.70674C9.26491 0.266724 8.90674 0.624896 8.90674 1.06672V5.33339C8.90674 5.77522 9.26491 6.13339 9.70674 6.13339H11.8401C12.2819 6.13339 12.6401 5.77522 12.6401 5.33339V1.06672C12.6401 0.624896 12.2819 0.266724 11.8401 0.266724Z" stroke="#032616"/>
<path d="M22.4 0.266724H20.2667C19.8248 0.266724 19.4667 0.624896 19.4667 1.06672V5.33339C19.4667 5.77522 19.8248 6.13339 20.2667 6.13339H22.4C22.8418 6.13339 23.2 5.77522 23.2 5.33339V1.06672C23.2 0.624896 22.8418 0.266724 22.4 0.266724Z" stroke="#032616"/>
<path d="M17.2784 28C15.4157 28 13.7814 27.6146 12.3756 26.8437C10.9874 26.0728 9.90664 24.9691 9.13344 23.5325C8.37781 22.0959 8 20.414 8 18.4869C8 16.5772 8.37781 14.9041 9.13344 13.4675C9.90664 12.0309 10.9874 10.9272 12.3756 10.1563C13.7814 9.38543 15.4157 9 17.2784 9C19.5102 9 21.4695 9.58691 23.1565 10.7607C23.4552 10.971 23.6661 11.1987 23.7891 11.444C23.9297 11.6893 24 12.0046 24 12.39C24 12.9331 23.8418 13.3974 23.5255 13.7828C23.2268 14.1508 22.8578 14.3347 22.4184 14.3347C22.1549 14.3347 21.9176 14.2997 21.7068 14.2296C21.4959 14.142 21.2499 14.0106 20.9687 13.8354C20.3536 13.4675 19.7737 13.2047 19.229 13.047C18.6842 12.8893 18.1219 12.8105 17.542 12.8105C15.978 12.8105 14.8094 13.2835 14.0362 14.2296C13.2806 15.1581 12.9028 16.5772 12.9028 18.4869C12.9028 20.414 13.2806 21.8506 14.0362 22.7967C14.8094 23.7252 15.978 24.1895 17.542 24.1895C18.0692 24.1895 18.5788 24.1107 19.0708 23.953C19.5629 23.7778 20.1955 23.515 20.9687 23.1646C21.3377 22.9719 21.6101 22.8405 21.7858 22.7704C21.9616 22.7003 22.1724 22.6653 22.4184 22.6653C22.8578 22.6653 23.2268 22.858 23.5255 23.2434C23.8418 23.6113 24 24.0668 24 24.61C24 24.9779 23.9297 25.2932 23.7891 25.556C23.6661 25.8013 23.4552 26.029 23.1565 26.2393C21.4695 27.4131 19.5102 28 17.2784 28Z" fill="#032616"/>
</g>
<defs>
<clipPath id="clip0">
<rect width="32" height="32" fill="white"/>
</clipPath>
</defs>
</svg>
