<svg width="300" height="300" viewBox="0 0 300 300" fill="none" xmlns="http://www.w3.org/2000/svg">
<rect width="300" height="300" fill="white"/>
<rect x="10" y="59" width="280" height="231" rx="10" stroke="#032616" stroke-width="20"/>
<rect x="83.5" y="2.5" width="35" height="55" rx="7.5" stroke="#032616" stroke-width="5"/>
<rect x="182.5" y="2.5" width="35" height="55" rx="7.5" stroke="#032616" stroke-width="5"/>
<path d="M155.208 150.864C148.424 150.864 142.472 149.456 137.352 146.64C132.296 143.824 128.36 139.792 125.544 134.544C122.792 129.296 121.416 123.152 121.416 116.112C121.416 109.136 122.792 103.024 125.544 97.776C128.36 92.528 132.296 88.496 137.352 85.68C142.472 82.864 148.424 81.456 155.208 81.456C163.336 81.456 170.472 83.6 176.616 87.888C177.704 88.656 178.472 89.488 178.92 90.384C179.432 91.28 179.688 92.432 179.688 93.84C179.688 95.824 179.112 97.52 177.96 98.928C176.872 100.272 175.528 100.944 173.928 100.944C172.968 100.944 172.104 100.816 171.336 100.56C170.568 100.24 169.672 99.76 168.648 99.12C166.408 97.776 164.296 96.816 162.312 96.24C160.328 95.664 158.28 95.376 156.168 95.376C150.472 95.376 146.216 97.104 143.4 100.56C140.648 103.952 139.272 109.136 139.272 116.112C139.272 123.152 140.648 128.4 143.4 131.856C146.216 135.248 150.472 136.944 156.168 136.944C158.088 136.944 159.944 136.656 161.736 136.08C163.528 135.44 165.832 134.48 168.648 133.2C169.992 132.496 170.984 132.016 171.624 131.76C172.264 131.504 173.032 131.376 173.928 131.376C175.528 131.376 176.872 132.08 177.96 133.488C179.112 134.832 179.688 136.496 179.688 138.48C179.688 139.824 179.432 140.976 178.92 141.936C178.472 142.832 177.704 143.664 176.616 144.432C170.472 148.72 163.336 150.864 155.208 150.864Z" fill="#032616"/>
<rect x="60" y="180" width="40" height="20" fill="#032616"/>
<rect x="130" y="180" width="40" height="20" fill="#032616"/>
<rect x="200" y="180" width="40" height="20" fill="#032616"/>
<rect x="60" y="220" width="40" height="20" fill="#032616"/>
<rect x="130" y="220" width="40" height="20" fill="#032616"/>
<rect x="200" y="220" width="40" height="20" fill="#032616"/>
</svg>
